<mxfile host="65bd71144e">
    <diagram id="qZT4ToYhwbTz8j2y0c27" name="Page-1">
        <mxGraphModel dx="5457" dy="1923" grid="0" gridSize="10" guides="1" tooltips="1" connect="1" arrows="1" fold="1" page="0" pageScale="1" pageWidth="827" pageHeight="1169" background="#ffffff" math="0" shadow="0">
            <root>
                <mxCell id="0"/>
                <mxCell id="1" parent="0"/>
                <mxCell id="15" value="найм сотрудников" style="swimlane;whiteSpace=wrap;html=1;fontColor=#ffffff;fillColor=#6d8764;strokeColor=#3A5431;swimlaneFillColor=#3A5431;" parent="1" vertex="1">
                    <mxGeometry x="-63" y="774" width="619" height="383" as="geometry"/>
                </mxCell>
                <mxCell id="16" value="поиск лучших котов-воркеров" style="rounded=0;whiteSpace=wrap;html=1;fillColor=#e3c800;fontColor=#000000;strokeColor=#B09500;" parent="15" vertex="1">
                    <mxGeometry x="12" y="47" width="120" height="60" as="geometry"/>
                </mxCell>
                <mxCell id="29" value="&lt;font color=&quot;#000000&quot;&gt;availability&lt;/font&gt;" style="rounded=0;whiteSpace=wrap;html=1;fillColor=#b0e3e6;strokeColor=#0e8088;" parent="15" vertex="1">
                    <mxGeometry x="18" y="110" width="72" height="54" as="geometry"/>
                </mxCell>
                <mxCell id="32" value="&lt;span style=&quot;color: rgb(33, 43, 54); font-family: __Inter_dfc6d2, __Inter_Fallback_dfc6d2; font-size: 14px; text-align: start; background-color: rgb(255, 255, 255);&quot;&gt;resilience&lt;/span&gt;" style="rounded=0;whiteSpace=wrap;html=1;fillColor=#b0e3e6;strokeColor=#0e8088;" parent="15" vertex="1">
                    <mxGeometry x="18" y="164" width="72" height="54" as="geometry"/>
                </mxCell>
                <mxCell id="35" value="отсев воркера" style="rounded=0;whiteSpace=wrap;html=1;fillColor=#e3c800;fontColor=#000000;strokeColor=#B09500;" parent="15" vertex="1">
                    <mxGeometry x="391" y="59" width="90" height="64" as="geometry"/>
                </mxCell>
                <mxCell id="36" value="&lt;font color=&quot;#000000&quot;&gt;modifiability&lt;/font&gt;" style="rounded=0;whiteSpace=wrap;html=1;fillColor=#b0e3e6;strokeColor=#0e8088;" parent="15" vertex="1">
                    <mxGeometry x="397" y="126" width="72" height="54" as="geometry"/>
                </mxCell>
                <mxCell id="37" value="&lt;font color=&quot;#000000&quot;&gt;deployability&lt;/font&gt;" style="rounded=0;whiteSpace=wrap;html=1;fillColor=#b0e3e6;strokeColor=#0e8088;" parent="15" vertex="1">
                    <mxGeometry x="400" y="183" width="72" height="54" as="geometry"/>
                </mxCell>
                <mxCell id="44" value="релизный цикл неделя" style="rounded=0;whiteSpace=wrap;html=1;fillColor=#eeeeee;strokeColor=#36393d;fontColor=#000000;" parent="15" vertex="1">
                    <mxGeometry x="404" y="234" width="91" height="38" as="geometry"/>
                </mxCell>
                <mxCell id="96" value="&lt;font color=&quot;#000000&quot;&gt;agility&lt;/font&gt;" style="rounded=0;whiteSpace=wrap;html=1;fillColor=#b0e3e6;strokeColor=#0e8088;" parent="15" vertex="1">
                    <mxGeometry x="476" y="132" width="72" height="54" as="geometry"/>
                </mxCell>
                <mxCell id="97" value="&lt;font color=&quot;#000000&quot;&gt;testability&lt;/font&gt;" style="rounded=0;whiteSpace=wrap;html=1;fillColor=#b0e3e6;strokeColor=#0e8088;" parent="15" vertex="1">
                    <mxGeometry x="516" y="199" width="72" height="54" as="geometry"/>
                </mxCell>
                <mxCell id="98" value="&lt;font color=&quot;#000000&quot;&gt;deployability&lt;/font&gt;" style="rounded=0;whiteSpace=wrap;html=1;fillColor=#b0e3e6;strokeColor=#0e8088;" parent="15" vertex="1">
                    <mxGeometry x="21" y="230" width="72" height="54" as="geometry"/>
                </mxCell>
                <mxCell id="99" value="релизный цикл месяц" style="rounded=0;whiteSpace=wrap;html=1;fillColor=#eeeeee;strokeColor=#36393d;fontColor=#000000;" parent="15" vertex="1">
                    <mxGeometry x="21" y="290" width="73" height="38" as="geometry"/>
                </mxCell>
                <mxCell id="100" value="&lt;font color=&quot;#000000&quot;&gt;agility&lt;/font&gt;" style="rounded=0;whiteSpace=wrap;html=1;fillColor=#b0e3e6;strokeColor=#0e8088;" parent="15" vertex="1">
                    <mxGeometry x="97" y="230" width="72" height="54" as="geometry"/>
                </mxCell>
                <mxCell id="101" value="&lt;font color=&quot;#000000&quot;&gt;testability&lt;/font&gt;" style="rounded=0;whiteSpace=wrap;html=1;fillColor=#b0e3e6;strokeColor=#0e8088;" parent="15" vertex="1">
                    <mxGeometry x="177" y="230" width="72" height="54" as="geometry"/>
                </mxCell>
                <mxCell id="17" value="заказ и выполнение услуг" style="swimlane;whiteSpace=wrap;html=1;fontColor=#ffffff;fillColor=#6d8764;strokeColor=#3A5431;swimlaneFillColor=#3A5431;" parent="1" vertex="1">
                    <mxGeometry x="645" y="751" width="710" height="551" as="geometry"/>
                </mxCell>
                <mxCell id="18" value="оформление и процесс выполнения услуги для клиента" style="rounded=0;whiteSpace=wrap;html=1;fillColor=#e3c800;fontColor=#000000;strokeColor=#B09500;" parent="17" vertex="1">
                    <mxGeometry x="13" y="28" width="120" height="60" as="geometry"/>
                </mxCell>
                <mxCell id="19" value="подбор воркера" style="rounded=0;whiteSpace=wrap;html=1;fillColor=#e3c800;fontColor=#000000;strokeColor=#B09500;" parent="17" vertex="1">
                    <mxGeometry x="432" y="39" width="120" height="60" as="geometry"/>
                </mxCell>
                <mxCell id="20" value="выполнение услуги воркером" style="rounded=0;whiteSpace=wrap;html=1;fillColor=#e3c800;fontColor=#000000;strokeColor=#B09500;" parent="17" vertex="1">
                    <mxGeometry x="31" y="374" width="120" height="60" as="geometry"/>
                </mxCell>
                <mxCell id="28" value="&lt;font color=&quot;#000000&quot;&gt;availability&lt;/font&gt;" style="rounded=0;whiteSpace=wrap;html=1;fillColor=#b0e3e6;strokeColor=#0e8088;" parent="17" vertex="1">
                    <mxGeometry x="13" y="88" width="72" height="54" as="geometry"/>
                </mxCell>
                <mxCell id="31" value="&lt;font color=&quot;#000000&quot;&gt;availability&lt;/font&gt;" style="rounded=0;whiteSpace=wrap;html=1;fillColor=#b0e3e6;strokeColor=#0e8088;" parent="17" vertex="1">
                    <mxGeometry x="34" y="447" width="72" height="54" as="geometry"/>
                </mxCell>
                <mxCell id="34" value="&lt;font color=&quot;#000000&quot;&gt;modifiability&lt;/font&gt;" style="rounded=0;whiteSpace=wrap;html=1;fillColor=#b0e3e6;strokeColor=#0e8088;" parent="17" vertex="1">
                    <mxGeometry x="434" y="99" width="72" height="54" as="geometry"/>
                </mxCell>
                <mxCell id="47" value="&lt;font color=&quot;#000000&quot;&gt;scalability&lt;/font&gt;" style="rounded=0;whiteSpace=wrap;html=1;fillColor=#b0e3e6;strokeColor=#0e8088;" parent="17" vertex="1">
                    <mxGeometry x="91" y="93" width="72" height="54" as="geometry"/>
                </mxCell>
                <mxCell id="48" value="&lt;font color=&quot;#000000&quot;&gt;scalability&lt;/font&gt;" style="rounded=0;whiteSpace=wrap;html=1;fillColor=#b0e3e6;strokeColor=#0e8088;" parent="17" vertex="1">
                    <mxGeometry x="519" y="104" width="72" height="54" as="geometry"/>
                </mxCell>
                <mxCell id="56" value="оценка качества работы воркеров" style="rounded=0;whiteSpace=wrap;html=1;fillColor=#e3c800;fontColor=#000000;strokeColor=#B09500;" parent="17" vertex="1">
                    <mxGeometry x="451" y="325" width="120" height="60" as="geometry"/>
                </mxCell>
                <mxCell id="70" value="&lt;font color=&quot;#000000&quot;&gt;deployability&lt;/font&gt;" style="rounded=0;whiteSpace=wrap;html=1;fillColor=#b0e3e6;strokeColor=#0e8088;" parent="17" vertex="1">
                    <mxGeometry x="436" y="403" width="72" height="54" as="geometry"/>
                </mxCell>
                <mxCell id="71" value="релизный цикл месяц" style="rounded=0;whiteSpace=wrap;html=1;fillColor=#eeeeee;strokeColor=#36393d;fontColor=#000000;" parent="17" vertex="1">
                    <mxGeometry x="436" y="463" width="73" height="38" as="geometry"/>
                </mxCell>
                <mxCell id="72" value="&lt;font color=&quot;#000000&quot;&gt;agility&lt;/font&gt;" style="rounded=0;whiteSpace=wrap;html=1;fillColor=#b0e3e6;strokeColor=#0e8088;" parent="17" vertex="1">
                    <mxGeometry x="512" y="403" width="72" height="54" as="geometry"/>
                </mxCell>
                <mxCell id="73" value="&lt;font color=&quot;#000000&quot;&gt;testability&lt;/font&gt;" style="rounded=0;whiteSpace=wrap;html=1;fillColor=#b0e3e6;strokeColor=#0e8088;" parent="17" vertex="1">
                    <mxGeometry x="592" y="403" width="72" height="54" as="geometry"/>
                </mxCell>
                <mxCell id="82" value="&lt;font color=&quot;#000000&quot;&gt;deployability&lt;/font&gt;" style="rounded=0;whiteSpace=wrap;html=1;fillColor=#b0e3e6;strokeColor=#0e8088;" parent="17" vertex="1">
                    <mxGeometry x="367" y="162" width="72" height="54" as="geometry"/>
                </mxCell>
                <mxCell id="83" value="релизный цикл месяц" style="rounded=0;whiteSpace=wrap;html=1;fillColor=#eeeeee;strokeColor=#36393d;fontColor=#000000;" parent="17" vertex="1">
                    <mxGeometry x="367" y="222" width="73" height="38" as="geometry"/>
                </mxCell>
                <mxCell id="84" value="&lt;font color=&quot;#000000&quot;&gt;agility&lt;/font&gt;" style="rounded=0;whiteSpace=wrap;html=1;fillColor=#b0e3e6;strokeColor=#0e8088;" parent="17" vertex="1">
                    <mxGeometry x="443" y="162" width="72" height="54" as="geometry"/>
                </mxCell>
                <mxCell id="85" value="&lt;font color=&quot;#000000&quot;&gt;testability&lt;/font&gt;" style="rounded=0;whiteSpace=wrap;html=1;fillColor=#b0e3e6;strokeColor=#0e8088;" parent="17" vertex="1">
                    <mxGeometry x="523" y="162" width="72" height="54" as="geometry"/>
                </mxCell>
                <mxCell id="86" value="&lt;font color=&quot;#000000&quot;&gt;deployability&lt;/font&gt;" style="rounded=0;whiteSpace=wrap;html=1;fillColor=#b0e3e6;strokeColor=#0e8088;" parent="17" vertex="1">
                    <mxGeometry x="110" y="451" width="72" height="54" as="geometry"/>
                </mxCell>
                <mxCell id="87" value="релизный цикл месяц" style="rounded=0;whiteSpace=wrap;html=1;fillColor=#eeeeee;strokeColor=#36393d;fontColor=#000000;" parent="17" vertex="1">
                    <mxGeometry x="110" y="511" width="73" height="38" as="geometry"/>
                </mxCell>
                <mxCell id="88" value="&lt;font color=&quot;#000000&quot;&gt;agility&lt;/font&gt;" style="rounded=0;whiteSpace=wrap;html=1;fillColor=#b0e3e6;strokeColor=#0e8088;" parent="17" vertex="1">
                    <mxGeometry x="186" y="451" width="72" height="54" as="geometry"/>
                </mxCell>
                <mxCell id="89" value="&lt;font color=&quot;#000000&quot;&gt;testability&lt;/font&gt;" style="rounded=0;whiteSpace=wrap;html=1;fillColor=#b0e3e6;strokeColor=#0e8088;" parent="17" vertex="1">
                    <mxGeometry x="266" y="451" width="72" height="54" as="geometry"/>
                </mxCell>
                <mxCell id="90" value="&lt;font color=&quot;#000000&quot;&gt;deployability&lt;/font&gt;" style="rounded=0;whiteSpace=wrap;html=1;fillColor=#b0e3e6;strokeColor=#0e8088;" parent="17" vertex="1">
                    <mxGeometry x="7" y="152" width="72" height="54" as="geometry"/>
                </mxCell>
                <mxCell id="91" value="релизный цикл месяц" style="rounded=0;whiteSpace=wrap;html=1;fillColor=#eeeeee;strokeColor=#36393d;fontColor=#000000;" parent="17" vertex="1">
                    <mxGeometry x="7" y="212" width="73" height="38" as="geometry"/>
                </mxCell>
                <mxCell id="92" value="&lt;font color=&quot;#000000&quot;&gt;agility&lt;/font&gt;" style="rounded=0;whiteSpace=wrap;html=1;fillColor=#b0e3e6;strokeColor=#0e8088;" parent="17" vertex="1">
                    <mxGeometry x="83" y="152" width="72" height="54" as="geometry"/>
                </mxCell>
                <mxCell id="93" value="&lt;font color=&quot;#000000&quot;&gt;testability&lt;/font&gt;" style="rounded=0;whiteSpace=wrap;html=1;fillColor=#b0e3e6;strokeColor=#0e8088;" parent="17" vertex="1">
                    <mxGeometry x="163" y="152" width="72" height="54" as="geometry"/>
                </mxCell>
                <mxCell id="24" value="работа склада" style="swimlane;whiteSpace=wrap;html=1;fontColor=#ffffff;fillColor=#76608A;strokeColor=#3A5431;swimlaneFillColor=#76608A;" parent="1" vertex="1">
                    <mxGeometry x="542" y="1346" width="280" height="290" as="geometry"/>
                </mxCell>
                <mxCell id="25" value="сборка заказов" style="rounded=0;whiteSpace=wrap;html=1;fillColor=#e3c800;fontColor=#000000;strokeColor=#B09500;" parent="24" vertex="1">
                    <mxGeometry x="47" y="51" width="120" height="60" as="geometry"/>
                </mxCell>
                <mxCell id="103" value="купим готовое" style="rounded=0;whiteSpace=wrap;html=1;fillColor=#eeeeee;strokeColor=#36393d;fontColor=#000000;" parent="24" vertex="1">
                    <mxGeometry x="64" y="131" width="94" height="57" as="geometry"/>
                </mxCell>
                <mxCell id="26" value="мотивация менеджеров" style="swimlane;whiteSpace=wrap;html=1;fontColor=#ffffff;fillColor=#76608A;strokeColor=#3A5431;swimlaneFillColor=#76608A;" parent="1" vertex="1">
                    <mxGeometry x="864" y="1341" width="340" height="260" as="geometry"/>
                </mxCell>
                <mxCell id="27" value="ставки на выполнение услуг воркерами" style="rounded=0;whiteSpace=wrap;html=1;fillColor=#e3c800;fontColor=#000000;strokeColor=#B09500;" parent="26" vertex="1">
                    <mxGeometry x="94" y="40" width="120" height="60" as="geometry"/>
                </mxCell>
                <mxCell id="49" value="покупаем готовое, так как программисты и начальство не должны ничего знать" style="rounded=0;whiteSpace=wrap;html=1;fillColor=#eeeeee;strokeColor=#36393d;fontColor=#000000;" parent="26" vertex="1">
                    <mxGeometry x="82" y="111" width="187" height="77" as="geometry"/>
                </mxCell>
                <mxCell id="40" value="общие на всю систему характеристики" style="swimlane;whiteSpace=wrap;html=1;fontColor=#000000;fillColor=#6666FF;" parent="1" vertex="1">
                    <mxGeometry x="727" y="443" width="619" height="200" as="geometry"/>
                </mxCell>
                <mxCell id="41" value="&lt;font color=&quot;#000000&quot;&gt;modifiability&lt;/font&gt;" style="rounded=0;whiteSpace=wrap;html=1;fillColor=#b0e3e6;strokeColor=#0e8088;" parent="40" vertex="1">
                    <mxGeometry x="9" y="36" width="72" height="54" as="geometry"/>
                </mxCell>
                <mxCell id="42" value="&lt;font color=&quot;#000000&quot;&gt;deployability&lt;/font&gt;" style="rounded=0;whiteSpace=wrap;html=1;fillColor=#b0e3e6;strokeColor=#0e8088;" parent="40" vertex="1">
                    <mxGeometry x="344" y="44" width="72" height="54" as="geometry"/>
                </mxCell>
                <mxCell id="43" value="релизный цикл месяц" style="rounded=0;whiteSpace=wrap;html=1;fillColor=#eeeeee;strokeColor=#36393d;fontColor=#000000;" parent="40" vertex="1">
                    <mxGeometry x="344" y="104" width="73" height="38" as="geometry"/>
                </mxCell>
                <mxCell id="45" value="&lt;font color=&quot;#000000&quot;&gt;scalability&lt;/font&gt;" style="rounded=0;whiteSpace=wrap;html=1;fillColor=#b0e3e6;strokeColor=#0e8088;" parent="40" vertex="1">
                    <mxGeometry x="181" y="36" width="72" height="54" as="geometry"/>
                </mxCell>
                <mxCell id="46" value="теперь 10 заказов в минуту" style="rounded=0;whiteSpace=wrap;html=1;fillColor=#eeeeee;strokeColor=#36393d;fontColor=#000000;" parent="40" vertex="1">
                    <mxGeometry x="176" y="98" width="73" height="64" as="geometry"/>
                </mxCell>
                <mxCell id="65" value="&lt;font color=&quot;#000000&quot;&gt;reliability&lt;/font&gt;" style="rounded=0;whiteSpace=wrap;html=1;fillColor=#b0e3e6;strokeColor=#0e8088;" parent="40" vertex="1">
                    <mxGeometry x="258" y="40" width="72" height="54" as="geometry"/>
                </mxCell>
                <mxCell id="68" value="&lt;font color=&quot;#000000&quot;&gt;agility&lt;/font&gt;" style="rounded=0;whiteSpace=wrap;html=1;fillColor=#b0e3e6;strokeColor=#0e8088;" parent="40" vertex="1">
                    <mxGeometry x="420" y="44" width="72" height="54" as="geometry"/>
                </mxCell>
                <mxCell id="69" value="&lt;font color=&quot;#000000&quot;&gt;testability&lt;/font&gt;" style="rounded=0;whiteSpace=wrap;html=1;fillColor=#b0e3e6;strokeColor=#0e8088;" parent="40" vertex="1">
                    <mxGeometry x="500" y="44" width="72" height="54" as="geometry"/>
                </mxCell>
                <mxCell id="106" value="&lt;font color=&quot;#000000&quot;&gt;operability&lt;/font&gt;" style="rounded=0;whiteSpace=wrap;html=1;fillColor=#b0e3e6;strokeColor=#0e8088;" parent="40" vertex="1">
                    <mxGeometry x="481.5" y="115" width="72" height="54" as="geometry"/>
                </mxCell>
                <mxCell id="50" value="заказ и выполнение услуг" style="swimlane;whiteSpace=wrap;html=1;fontColor=#ffffff;fillColor=#6d8764;strokeColor=#3A5431;swimlaneFillColor=#3A5431;" parent="1" vertex="1">
                    <mxGeometry x="1434" y="748" width="674" height="484" as="geometry"/>
                </mxCell>
                <mxCell id="55" value="выставление счетов клиентам" style="rounded=0;whiteSpace=wrap;html=1;fillColor=#e3c800;fontColor=#000000;strokeColor=#B09500;" parent="50" vertex="1">
                    <mxGeometry x="19" y="48" width="120" height="60" as="geometry"/>
                </mxCell>
                <mxCell id="63" value="&lt;font color=&quot;#000000&quot;&gt;consistency&lt;/font&gt;" style="rounded=0;whiteSpace=wrap;html=1;fillColor=#b0e3e6;strokeColor=#0e8088;" parent="50" vertex="1">
                    <mxGeometry x="36" y="126" width="72" height="54" as="geometry"/>
                </mxCell>
                <mxCell id="64" value="&lt;font color=&quot;#000000&quot;&gt;consistency&lt;/font&gt;" style="rounded=0;whiteSpace=wrap;html=1;fillColor=#b0e3e6;strokeColor=#0e8088;" parent="50" vertex="1">
                    <mxGeometry x="504" y="132" width="72" height="54" as="geometry"/>
                </mxCell>
                <mxCell id="21" value="выплаты воркерам" style="rounded=0;whiteSpace=wrap;html=1;fillColor=#e3c800;fontColor=#000000;strokeColor=#B09500;" parent="50" vertex="1">
                    <mxGeometry x="501" y="48" width="120" height="60" as="geometry"/>
                </mxCell>
                <mxCell id="66" value="раз в месяц, новые способы" style="rounded=0;whiteSpace=wrap;html=1;fillColor=#eeeeee;strokeColor=#36393d;fontColor=#000000;" parent="50" vertex="1">
                    <mxGeometry x="17" y="191" width="119" height="38" as="geometry"/>
                </mxCell>
                <mxCell id="67" value="раз в месяц, шляпа" style="rounded=0;whiteSpace=wrap;html=1;fillColor=#eeeeee;strokeColor=#36393d;fontColor=#000000;" parent="50" vertex="1">
                    <mxGeometry x="489" y="197" width="119" height="38" as="geometry"/>
                </mxCell>
                <mxCell id="74" value="&lt;font color=&quot;#000000&quot;&gt;deployability&lt;/font&gt;" style="rounded=0;whiteSpace=wrap;html=1;fillColor=#b0e3e6;strokeColor=#0e8088;" parent="50" vertex="1">
                    <mxGeometry x="15" y="243" width="72" height="54" as="geometry"/>
                </mxCell>
                <mxCell id="75" value="релизный цикл месяц" style="rounded=0;whiteSpace=wrap;html=1;fillColor=#eeeeee;strokeColor=#36393d;fontColor=#000000;" parent="50" vertex="1">
                    <mxGeometry x="15" y="303" width="73" height="38" as="geometry"/>
                </mxCell>
                <mxCell id="76" value="&lt;font color=&quot;#000000&quot;&gt;agility&lt;/font&gt;" style="rounded=0;whiteSpace=wrap;html=1;fillColor=#b0e3e6;strokeColor=#0e8088;" parent="50" vertex="1">
                    <mxGeometry x="91" y="243" width="72" height="54" as="geometry"/>
                </mxCell>
                <mxCell id="77" value="&lt;font color=&quot;#000000&quot;&gt;testability&lt;/font&gt;" style="rounded=0;whiteSpace=wrap;html=1;fillColor=#b0e3e6;strokeColor=#0e8088;" parent="50" vertex="1">
                    <mxGeometry x="171" y="243" width="72" height="54" as="geometry"/>
                </mxCell>
                <mxCell id="78" value="&lt;font color=&quot;#000000&quot;&gt;deployability&lt;/font&gt;" style="rounded=0;whiteSpace=wrap;html=1;fillColor=#b0e3e6;strokeColor=#0e8088;" parent="50" vertex="1">
                    <mxGeometry x="419" y="258" width="72" height="54" as="geometry"/>
                </mxCell>
                <mxCell id="79" value="релизный цикл месяц" style="rounded=0;whiteSpace=wrap;html=1;fillColor=#eeeeee;strokeColor=#36393d;fontColor=#000000;" parent="50" vertex="1">
                    <mxGeometry x="419" y="318" width="73" height="38" as="geometry"/>
                </mxCell>
                <mxCell id="80" value="&lt;font color=&quot;#000000&quot;&gt;agility&lt;/font&gt;" style="rounded=0;whiteSpace=wrap;html=1;fillColor=#b0e3e6;strokeColor=#0e8088;" parent="50" vertex="1">
                    <mxGeometry x="495" y="258" width="72" height="54" as="geometry"/>
                </mxCell>
                <mxCell id="81" value="&lt;font color=&quot;#000000&quot;&gt;testability&lt;/font&gt;" style="rounded=0;whiteSpace=wrap;html=1;fillColor=#b0e3e6;strokeColor=#0e8088;" parent="50" vertex="1">
                    <mxGeometry x="575" y="258" width="72" height="54" as="geometry"/>
                </mxCell>
                <mxCell id="119" value="" style="swimlane;whiteSpace=wrap;html=1;fontColor=#000000;fillColor=#6666FF;" parent="1" vertex="1">
                    <mxGeometry x="789" y="1856" width="277" height="231" as="geometry"/>
                </mxCell>
                <mxCell id="116" value="выставление счетов клиентам" style="rounded=0;whiteSpace=wrap;html=1;fillColor=#e3c800;fontColor=#000000;strokeColor=#B09500;" parent="119" vertex="1">
                    <mxGeometry x="91" y="31" width="120" height="60" as="geometry"/>
                </mxCell>
                <mxCell id="120" value="ограничение фин отдела, поэтому отдельный сервис" style="rounded=0;whiteSpace=wrap;html=1;fillColor=#eeeeee;strokeColor=#36393d;fontColor=#000000;" parent="119" vertex="1">
                    <mxGeometry x="16" y="102" width="118" height="93" as="geometry"/>
                </mxCell>
                <mxCell id="150" value="&lt;span style=&quot;color: rgb(0, 0, 0); font-family: &amp;quot;PT Root UI&amp;quot;, sans-serif; text-align: left; caret-color: rgb(55, 53, 47);&quot;&gt;&lt;font style=&quot;font-size: 11px;&quot;&gt;модульный монолит - много модулей с разными системами платежей&lt;/font&gt;&lt;/span&gt;" style="rounded=0;whiteSpace=wrap;html=1;fillColor=#ffff88;strokeColor=#36393d;" parent="119" vertex="1">
                    <mxGeometry x="156" y="109" width="106" height="91" as="geometry"/>
                </mxCell>
                <mxCell id="121" value="" style="swimlane;whiteSpace=wrap;html=1;fontColor=#000000;fillColor=#6666FF;" parent="1" vertex="1">
                    <mxGeometry x="772" y="2100" width="298" height="314" as="geometry"/>
                </mxCell>
                <mxCell id="123" value="ограничение фин отдела, поэтому отдельный сервис" style="rounded=0;whiteSpace=wrap;html=1;fillColor=#eeeeee;strokeColor=#36393d;fontColor=#000000;" parent="121" vertex="1">
                    <mxGeometry x="22" y="114" width="118" height="93" as="geometry"/>
                </mxCell>
                <mxCell id="117" value="выплаты воркерам" style="rounded=0;whiteSpace=wrap;html=1;fillColor=#e3c800;fontColor=#000000;strokeColor=#B09500;" parent="121" vertex="1">
                    <mxGeometry x="21" y="33" width="120" height="60" as="geometry"/>
                </mxCell>
                <mxCell id="124" value="можно было бы объединить с выставлением счетов клиентов. но так как данные и логика не смешиваются, а деплоить надо часто и надежно, то отдельно" style="rounded=0;whiteSpace=wrap;html=1;fillColor=#eeeeee;strokeColor=#36393d;fontColor=#000000;" parent="121" vertex="1">
                    <mxGeometry x="156" y="158" width="118" height="149" as="geometry"/>
                </mxCell>
                <mxCell id="152" value="&lt;span style=&quot;color: rgb(0, 0, 0); font-family: &amp;quot;PT Root UI&amp;quot;, sans-serif; text-align: left; caret-color: rgb(55, 53, 47);&quot;&gt;&lt;font style=&quot;font-size: 11px;&quot;&gt;модульный монолит - похоже на выставление счетов с одним модулем, можно скопипастить, в будущем можно будет съехать со шляпы&lt;/font&gt;&lt;/span&gt;" style="rounded=0;whiteSpace=wrap;html=1;fillColor=#ffff88;strokeColor=#36393d;" parent="121" vertex="1">
                    <mxGeometry x="162" y="38" width="125" height="113" as="geometry"/>
                </mxCell>
                <mxCell id="125" value="" style="swimlane;whiteSpace=wrap;html=1;fontColor=#000000;fillColor=#FFFFFF;" parent="1" vertex="1">
                    <mxGeometry x="1088" y="1862" width="238" height="210" as="geometry"/>
                </mxCell>
                <mxCell id="126" value="внешний сервис" style="rounded=0;whiteSpace=wrap;html=1;fillColor=#eeeeee;strokeColor=#36393d;fontColor=#000000;" parent="125" vertex="1">
                    <mxGeometry x="22" y="114" width="100" height="66" as="geometry"/>
                </mxCell>
                <mxCell id="115" value="ставки на выполнение услуг воркерами" style="rounded=0;whiteSpace=wrap;html=1;fillColor=#e3c800;fontColor=#000000;strokeColor=#B09500;" parent="125" vertex="1">
                    <mxGeometry x="22" y="33" width="120" height="60" as="geometry"/>
                </mxCell>
                <mxCell id="129" value="" style="swimlane;whiteSpace=wrap;html=1;fontColor=#000000;fillColor=#6666FF;" parent="1" vertex="1">
                    <mxGeometry x="482" y="2107" width="250" height="208" as="geometry"/>
                </mxCell>
                <mxCell id="109" value="отсев воркера" style="rounded=0;whiteSpace=wrap;html=1;fillColor=#e3c800;fontColor=#000000;strokeColor=#B09500;" parent="129" vertex="1">
                    <mxGeometry x="17" y="37" width="90" height="64" as="geometry"/>
                </mxCell>
                <mxCell id="132" value="отличается релизный цикл, поэтому отдельно" style="rounded=0;whiteSpace=wrap;html=1;fillColor=#eeeeee;strokeColor=#36393d;fontColor=#000000;" parent="129" vertex="1">
                    <mxGeometry x="26" y="123" width="100" height="66" as="geometry"/>
                </mxCell>
                <mxCell id="153" value="&lt;font color=&quot;#000000&quot;&gt;microkernel - ожидаем много фич с гипотезами и частые релизы&lt;/font&gt;" style="rounded=0;whiteSpace=wrap;html=1;fillColor=#ffff88;strokeColor=#36393d;" parent="129" vertex="1">
                    <mxGeometry x="120" y="41" width="115" height="64" as="geometry"/>
                </mxCell>
                <mxCell id="133" value="" style="swimlane;whiteSpace=wrap;html=1;fontColor=#000000;fillColor=#6666FF;" parent="1" vertex="1">
                    <mxGeometry x="445" y="1851.5" width="277" height="231" as="geometry"/>
                </mxCell>
                <mxCell id="135" value="штука которая состоит из большого количества модулей. если держать ее в монолите - будет влиять на всю систему" style="rounded=0;whiteSpace=wrap;html=1;fillColor=#eeeeee;strokeColor=#36393d;fontColor=#000000;" parent="133" vertex="1">
                    <mxGeometry x="37" y="109" width="191" height="100" as="geometry"/>
                </mxCell>
                <mxCell id="111" value="подбор воркера" style="rounded=0;whiteSpace=wrap;html=1;fillColor=#e3c800;fontColor=#000000;strokeColor=#B09500;" parent="133" vertex="1">
                    <mxGeometry x="35" y="29" width="120" height="60" as="geometry"/>
                </mxCell>
                <mxCell id="149" value="&lt;font color=&quot;#000000&quot;&gt;pipeline&lt;/font&gt;" style="rounded=0;whiteSpace=wrap;html=1;fillColor=#ffff88;strokeColor=#36393d;" parent="133" vertex="1">
                    <mxGeometry x="173" y="42" width="86" height="47" as="geometry"/>
                </mxCell>
                <mxCell id="136" value="" style="swimlane;whiteSpace=wrap;html=1;fontColor=#000000;fillColor=#6666FF;" parent="1" vertex="1">
                    <mxGeometry x="133" y="1836" width="277" height="231" as="geometry"/>
                </mxCell>
                <mxCell id="137" value="вот тут отличаются требования по надежности (ждем ddos), поэтому отдельно" style="rounded=0;whiteSpace=wrap;html=1;fillColor=#eeeeee;strokeColor=#36393d;fontColor=#000000;" parent="136" vertex="1">
                    <mxGeometry x="37" y="109" width="163" height="93" as="geometry"/>
                </mxCell>
                <mxCell id="108" value="поиск лучших котов-воркеров" style="rounded=0;whiteSpace=wrap;html=1;fillColor=#e3c800;fontColor=#000000;strokeColor=#B09500;" parent="136" vertex="1">
                    <mxGeometry x="40" y="33" width="120" height="60" as="geometry"/>
                </mxCell>
                <mxCell id="154" value="&lt;font color=&quot;#000000&quot;&gt;layered monolith&lt;/font&gt;" style="rounded=0;whiteSpace=wrap;html=1;fillColor=#ffff88;strokeColor=#36393d;" parent="136" vertex="1">
                    <mxGeometry x="173" y="29" width="86" height="47" as="geometry"/>
                </mxCell>
                <mxCell id="139" value="" style="swimlane;whiteSpace=wrap;html=1;fontColor=#000000;fillColor=#FFFFFF;" parent="1" vertex="1">
                    <mxGeometry x="1085" y="2076" width="168" height="190" as="geometry"/>
                </mxCell>
                <mxCell id="140" value="покупаем готовое" style="rounded=0;whiteSpace=wrap;html=1;fillColor=#eeeeee;strokeColor=#36393d;fontColor=#000000;" parent="139" vertex="1">
                    <mxGeometry x="17" y="105" width="123" height="53" as="geometry"/>
                </mxCell>
                <mxCell id="114" value="сборка заказов" style="rounded=0;whiteSpace=wrap;html=1;fillColor=#e3c800;fontColor=#000000;strokeColor=#B09500;" parent="139" vertex="1">
                    <mxGeometry x="17" y="32" width="120" height="60" as="geometry"/>
                </mxCell>
                <mxCell id="142" value="" style="swimlane;whiteSpace=wrap;html=1;fontColor=#000000;fillColor=#6666FF;" parent="1" vertex="1">
                    <mxGeometry x="556" y="2325" width="168" height="190" as="geometry"/>
                </mxCell>
                <mxCell id="143" value="работа отдельного отдела, у них свои хотелки" style="rounded=0;whiteSpace=wrap;html=1;fillColor=#eeeeee;strokeColor=#36393d;fontColor=#000000;" parent="142" vertex="1">
                    <mxGeometry x="17" y="105" width="123" height="53" as="geometry"/>
                </mxCell>
                <mxCell id="113" value="оценка качества работы воркеров" style="rounded=0;whiteSpace=wrap;html=1;fillColor=#e3c800;fontColor=#000000;strokeColor=#B09500;" parent="142" vertex="1">
                    <mxGeometry x="16" y="30" width="120" height="60" as="geometry"/>
                </mxCell>
                <mxCell id="145" value="" style="swimlane;whiteSpace=wrap;html=1;fontColor=#000000;fillColor=#6666FF;" parent="1" vertex="1">
                    <mxGeometry x="133" y="2107" width="320" height="276" as="geometry"/>
                </mxCell>
                <mxCell id="146" value="штуки которые обеспечивают один процесс. у них одинаковые требования, чтобы заказы делались. поэтому объединила" style="rounded=0;whiteSpace=wrap;html=1;fillColor=#eeeeee;strokeColor=#36393d;fontColor=#000000;" parent="145" vertex="1">
                    <mxGeometry x="17" y="105" width="284" height="74" as="geometry"/>
                </mxCell>
                <mxCell id="110" value="оформление и процесс выполнения услуги для клиента" style="rounded=0;whiteSpace=wrap;html=1;fillColor=#e3c800;fontColor=#000000;strokeColor=#B09500;" parent="145" vertex="1">
                    <mxGeometry x="23" y="33" width="120" height="60" as="geometry"/>
                </mxCell>
                <mxCell id="112" value="выполнение услуги воркером" style="rounded=0;whiteSpace=wrap;html=1;fillColor=#e3c800;fontColor=#000000;strokeColor=#B09500;" parent="145" vertex="1">
                    <mxGeometry x="174" y="33" width="120" height="60" as="geometry"/>
                </mxCell>
                <mxCell id="155" value="&lt;font color=&quot;#000000&quot;&gt;layered monolith&lt;/font&gt;" style="rounded=0;whiteSpace=wrap;html=1;fillColor=#ffff88;strokeColor=#36393d;" parent="145" vertex="1">
                    <mxGeometry x="60" y="192" width="86" height="47" as="geometry"/>
                </mxCell>
                <mxCell id="156" value="" style="swimlane;whiteSpace=wrap;html=1;fontColor=#000000;fillColor=#6666FF;" parent="1" vertex="1">
                    <mxGeometry x="816" y="3161" width="166" height="118" as="geometry"/>
                </mxCell>
                <mxCell id="157" value="выставление счетов клиентам" style="rounded=0;whiteSpace=wrap;html=1;fillColor=#e3c800;fontColor=#000000;strokeColor=#B09500;" parent="156" vertex="1">
                    <mxGeometry x="19" y="33" width="120" height="60" as="geometry"/>
                </mxCell>
                <mxCell id="160" value="" style="swimlane;whiteSpace=wrap;html=1;fontColor=#000000;fillColor=#6666FF;" parent="1" vertex="1">
                    <mxGeometry x="838.5" y="3318" width="165" height="125" as="geometry"/>
                </mxCell>
                <mxCell id="162" value="выплаты воркерам" style="rounded=0;whiteSpace=wrap;html=1;fillColor=#e3c800;fontColor=#000000;strokeColor=#B09500;" parent="160" vertex="1">
                    <mxGeometry x="21" y="33" width="120" height="60" as="geometry"/>
                </mxCell>
                <mxCell id="165" value="" style="swimlane;whiteSpace=wrap;html=1;fontColor=#000000;fillColor=#FFFFFF;" parent="1" vertex="1">
                    <mxGeometry x="626" y="2724" width="163" height="124" as="geometry"/>
                </mxCell>
                <mxCell id="167" value="ставки на выполнение услуг воркерами" style="rounded=0;whiteSpace=wrap;html=1;fillColor=#e3c800;fontColor=#000000;strokeColor=#B09500;" parent="165" vertex="1">
                    <mxGeometry x="22" y="33" width="120" height="60" as="geometry"/>
                </mxCell>
                <mxCell id="225" style="edgeStyle=none;html=1;exitX=0;exitY=0.75;exitDx=0;exitDy=0;entryX=1;entryY=0.75;entryDx=0;entryDy=0;dashed=1;strokeColor=#FF0000;fontSize=11;fontColor=#000000;" parent="1" source="168" target="176" edge="1">
                    <mxGeometry relative="1" as="geometry"/>
                </mxCell>
                <mxCell id="226" value="стриминг событие&lt;br&gt;&amp;nbsp;о результатах отбора" style="edgeLabel;html=1;align=center;verticalAlign=middle;resizable=0;points=[];fontSize=11;fontColor=#000000;labelBackgroundColor=none;" parent="225" vertex="1" connectable="0">
                    <mxGeometry x="-0.3167" relative="1" as="geometry">
                        <mxPoint as="offset"/>
                    </mxGeometry>
                </mxCell>
                <mxCell id="168" value="" style="swimlane;whiteSpace=wrap;html=1;fontColor=#000000;fillColor=#6666FF;" parent="1" vertex="1">
                    <mxGeometry x="374" y="2687" width="138" height="127" as="geometry"/>
                </mxCell>
                <mxCell id="169" value="отсев воркера" style="rounded=0;whiteSpace=wrap;html=1;fillColor=#e3c800;fontColor=#000000;strokeColor=#B09500;" parent="168" vertex="1">
                    <mxGeometry x="17" y="37" width="90" height="64" as="geometry"/>
                </mxCell>
                <mxCell id="222" style="edgeStyle=none;html=1;exitX=0;exitY=0;exitDx=0;exitDy=0;dashed=1;strokeColor=#FF0000;fontSize=11;fontColor=#000000;" parent="1" source="172" edge="1">
                    <mxGeometry relative="1" as="geometry">
                        <mxPoint x="46.473684210526244" y="3152.3157894736846" as="targetPoint"/>
                    </mxGeometry>
                </mxCell>
                <mxCell id="223" value="стриминг событие &lt;br&gt;о назначенном воркере" style="edgeLabel;html=1;align=center;verticalAlign=middle;resizable=0;points=[];fontSize=11;fontColor=#000000;labelBackgroundColor=none;" parent="222" vertex="1" connectable="0">
                    <mxGeometry x="-0.1594" y="-1" relative="1" as="geometry">
                        <mxPoint as="offset"/>
                    </mxGeometry>
                </mxCell>
                <mxCell id="172" value="" style="swimlane;whiteSpace=wrap;html=1;fontColor=#000000;fillColor=#6666FF;" parent="1" vertex="1">
                    <mxGeometry x="25" y="3224.5" width="184" height="126.5" as="geometry"/>
                </mxCell>
                <mxCell id="174" value="подбор воркера" style="rounded=0;whiteSpace=wrap;html=1;fillColor=#e3c800;fontColor=#000000;strokeColor=#B09500;" parent="172" vertex="1">
                    <mxGeometry x="35" y="29" width="120" height="60" as="geometry"/>
                </mxCell>
                <mxCell id="219" style="edgeStyle=none;html=1;exitX=1;exitY=0.5;exitDx=0;exitDy=0;entryX=0;entryY=0.5;entryDx=0;entryDy=0;strokeColor=#3333FF;fontSize=11;fontColor=#000000;dashed=1;" parent="1" source="176" target="168" edge="1">
                    <mxGeometry relative="1" as="geometry"/>
                </mxCell>
                <mxCell id="224" value="бизнес событие &lt;br&gt;о новом кандидате" style="edgeLabel;html=1;align=center;verticalAlign=middle;resizable=0;points=[];fontSize=11;fontColor=#000000;labelBackgroundColor=none;" parent="219" vertex="1" connectable="0">
                    <mxGeometry x="0.3872" relative="1" as="geometry">
                        <mxPoint x="-12" y="-14" as="offset"/>
                    </mxGeometry>
                </mxCell>
                <mxCell id="227" style="edgeStyle=none;html=1;exitX=0.75;exitY=1;exitDx=0;exitDy=0;entryX=0.5;entryY=0;entryDx=0;entryDy=0;dashed=1;strokeColor=#FF0000;fontSize=11;fontColor=#000000;" parent="1" source="176" target="186" edge="1">
                    <mxGeometry relative="1" as="geometry"/>
                </mxCell>
                <mxCell id="228" value="стриминг события с воркерами" style="edgeLabel;html=1;align=center;verticalAlign=middle;resizable=0;points=[];fontSize=11;fontColor=#000000;labelBackgroundColor=none;" parent="227" vertex="1" connectable="0">
                    <mxGeometry x="-0.4656" y="-3" relative="1" as="geometry">
                        <mxPoint as="offset"/>
                    </mxGeometry>
                </mxCell>
                <mxCell id="176" value="" style="swimlane;whiteSpace=wrap;html=1;fontColor=#000000;fillColor=#6666FF;" parent="1" vertex="1">
                    <mxGeometry x="25" y="2687" width="179" height="140" as="geometry"/>
                </mxCell>
                <mxCell id="178" value="поиск лучших котов-воркеров" style="rounded=0;whiteSpace=wrap;html=1;fillColor=#e3c800;fontColor=#000000;strokeColor=#B09500;" parent="176" vertex="1">
                    <mxGeometry x="40" y="33" width="120" height="60" as="geometry"/>
                </mxCell>
                <mxCell id="180" value="" style="swimlane;whiteSpace=wrap;html=1;fontColor=#000000;fillColor=#FFFFFF;" parent="1" vertex="1">
                    <mxGeometry x="261" y="3227" width="165" height="124" as="geometry"/>
                </mxCell>
                <mxCell id="182" value="сборка заказов" style="rounded=0;whiteSpace=wrap;html=1;fillColor=#e3c800;fontColor=#000000;strokeColor=#B09500;" parent="180" vertex="1">
                    <mxGeometry x="17" y="32" width="120" height="60" as="geometry"/>
                </mxCell>
                <mxCell id="183" value="" style="swimlane;whiteSpace=wrap;html=1;fontColor=#000000;fillColor=#6666FF;" parent="1" vertex="1">
                    <mxGeometry x="732" y="2961" width="156" height="123" as="geometry"/>
                </mxCell>
                <mxCell id="185" value="оценка качества работы воркеров" style="rounded=0;whiteSpace=wrap;html=1;fillColor=#e3c800;fontColor=#000000;strokeColor=#B09500;" parent="183" vertex="1">
                    <mxGeometry x="16" y="30" width="120" height="60" as="geometry"/>
                </mxCell>
                <mxCell id="192" style="edgeStyle=none;html=1;exitX=1;exitY=0.75;exitDx=0;exitDy=0;entryX=0;entryY=0.75;entryDx=0;entryDy=0;fontSize=11;fontColor=#000000;strokeColor=#FF0000;dashed=1;" parent="1" source="186" target="160" edge="1">
                    <mxGeometry relative="1" as="geometry"/>
                </mxCell>
                <mxCell id="193" value="стриминг событие о заказах" style="edgeLabel;html=1;align=center;verticalAlign=middle;resizable=0;points=[];fontSize=11;fontColor=#000000;labelBackgroundColor=none;" parent="192" vertex="1" connectable="0">
                    <mxGeometry x="0.6103" y="-4" relative="1" as="geometry">
                        <mxPoint x="11" y="-39" as="offset"/>
                    </mxGeometry>
                </mxCell>
                <mxCell id="194" style="edgeStyle=none;html=1;exitX=1;exitY=0.75;exitDx=0;exitDy=0;entryX=0;entryY=0.5;entryDx=0;entryDy=0;dashed=1;strokeColor=#FF0000;fontSize=11;fontColor=#000000;" parent="1" source="186" target="156" edge="1">
                    <mxGeometry relative="1" as="geometry"/>
                </mxCell>
                <mxCell id="195" value="&lt;span style=&quot;color: rgba(0, 0, 0, 0); font-family: monospace; font-size: 0px; text-align: start;&quot;&gt;%3CmxGraphModel%3E%3Croot%3E%3CmxCell%20id%3D%220%22%2F%3E%3CmxCell%20id%3D%221%22%20parent%3D%220%22%2F%3E%3CmxCell%20id%3D%222%22%20value%3D%22%D1%81%D1%82%D1%80%D0%B8%D0%BC%D0%B8%D0%BD%D0%B3%20%D1%81%D0%BE%D0%B1%D1%8B%D1%82%D0%B8%D0%B5%20%D0%BE%20%D0%B7%D0%B0%D0%BA%D0%B0%D0%B7%D0%B0%D1%85%22%20style%3D%22edgeLabel%3Bhtml%3D1%3Balign%3Dcenter%3BverticalAlign%3Dmiddle%3Bresizable%3D0%3Bpoints%3D%5B%5D%3BfontSize%3D11%3BfontColor%3D%23000000%3BlabelBackgroundColor%3Dnone%3B%22%20vertex%3D%221%22%20connectable%3D%220%22%20parent%3D%221%22%3E%3CmxGeometry%20x%3D%22722.4344917250878%22%20y%3D%223339.9749510437887%22%20as%3D%22geometry%22%2F%3E%3C%2FmxCell%3E%3C%2Froot%3E%3C%2FmxGraphModel%3E&lt;/span&gt;" style="edgeLabel;html=1;align=center;verticalAlign=middle;resizable=0;points=[];fontSize=11;fontColor=#000000;" parent="194" vertex="1" connectable="0">
                    <mxGeometry x="0.7069" y="2" relative="1" as="geometry">
                        <mxPoint as="offset"/>
                    </mxGeometry>
                </mxCell>
                <mxCell id="196" value="стриминг событие о заказах" style="edgeLabel;html=1;align=center;verticalAlign=middle;resizable=0;points=[];fontSize=11;fontColor=#000000;labelBackgroundColor=none;" parent="194" vertex="1" connectable="0">
                    <mxGeometry x="0.7258" y="1" relative="1" as="geometry">
                        <mxPoint x="-56" y="-9" as="offset"/>
                    </mxGeometry>
                </mxCell>
                <mxCell id="198" style="edgeStyle=none;html=1;exitX=1;exitY=0.75;exitDx=0;exitDy=0;entryX=0;entryY=0.25;entryDx=0;entryDy=0;dashed=1;strokeColor=#FF0000;fontSize=11;fontColor=#000000;" parent="1" source="186" target="156" edge="1">
                    <mxGeometry relative="1" as="geometry"/>
                </mxCell>
                <mxCell id="199" value="стриминг событие о клиентах" style="edgeLabel;html=1;align=center;verticalAlign=middle;resizable=0;points=[];fontSize=11;fontColor=#000000;labelBackgroundColor=none;" parent="198" vertex="1" connectable="0">
                    <mxGeometry x="0.492" y="-1" relative="1" as="geometry">
                        <mxPoint as="offset"/>
                    </mxGeometry>
                </mxCell>
                <mxCell id="200" style="edgeStyle=none;html=1;exitX=1;exitY=1;exitDx=0;exitDy=0;entryX=0;entryY=1;entryDx=0;entryDy=0;dashed=1;strokeColor=#FF0000;fontSize=11;fontColor=#000000;" parent="1" source="186" target="160" edge="1">
                    <mxGeometry relative="1" as="geometry"/>
                </mxCell>
                <mxCell id="201" value="стриминг событие о воркерах" style="edgeLabel;html=1;align=center;verticalAlign=middle;resizable=0;points=[];fontSize=11;fontColor=#000000;labelBackgroundColor=none;" parent="200" vertex="1" connectable="0">
                    <mxGeometry x="-0.1089" y="1" relative="1" as="geometry">
                        <mxPoint x="3" y="46" as="offset"/>
                    </mxGeometry>
                </mxCell>
                <mxCell id="217" style="edgeStyle=none;html=1;exitX=1;exitY=0;exitDx=0;exitDy=0;entryX=0;entryY=0.75;entryDx=0;entryDy=0;strokeColor=#000000;fontSize=11;fontColor=#000000;" parent="1" source="186" target="165" edge="1">
                    <mxGeometry relative="1" as="geometry"/>
                </mxCell>
                <mxCell id="218" style="edgeStyle=none;html=1;exitX=0.75;exitY=1;exitDx=0;exitDy=0;strokeColor=#000000;fontSize=11;fontColor=#000000;" parent="1" source="186" target="180" edge="1">
                    <mxGeometry relative="1" as="geometry"/>
                </mxCell>
                <mxCell id="220" style="edgeStyle=none;html=1;exitX=0.25;exitY=1;exitDx=0;exitDy=0;strokeColor=#3333FF;fontSize=11;fontColor=#000000;dashed=1;" parent="1" source="186" target="172" edge="1">
                    <mxGeometry relative="1" as="geometry"/>
                </mxCell>
                <mxCell id="221" value="бизнес событие &lt;br&gt;о новой заявке" style="edgeLabel;html=1;align=center;verticalAlign=middle;resizable=0;points=[];fontSize=11;fontColor=#000000;labelBackgroundColor=none;" parent="220" vertex="1" connectable="0">
                    <mxGeometry x="0.4317" relative="1" as="geometry">
                        <mxPoint x="34" y="-13" as="offset"/>
                    </mxGeometry>
                </mxCell>
                <mxCell id="186" value="" style="swimlane;whiteSpace=wrap;html=1;fontColor=#000000;fillColor=#6666FF;" parent="1" vertex="1">
                    <mxGeometry x="25" y="2991" width="320" height="161" as="geometry"/>
                </mxCell>
                <mxCell id="188" value="оформление и процесс выполнения услуги для клиента" style="rounded=0;whiteSpace=wrap;html=1;fillColor=#e3c800;fontColor=#000000;strokeColor=#B09500;" parent="186" vertex="1">
                    <mxGeometry x="23" y="33" width="120" height="60" as="geometry"/>
                </mxCell>
                <mxCell id="189" value="выполнение услуги воркером" style="rounded=0;whiteSpace=wrap;html=1;fillColor=#e3c800;fontColor=#000000;strokeColor=#B09500;" parent="186" vertex="1">
                    <mxGeometry x="174" y="33" width="120" height="60" as="geometry"/>
                </mxCell>
                <mxCell id="206" style="edgeStyle=none;html=1;exitX=1;exitY=0.75;exitDx=0;exitDy=0;entryX=0;entryY=0.75;entryDx=0;entryDy=0;dashed=1;strokeColor=#FF0000;fontSize=11;fontColor=#000000;" parent="1" source="186" target="183" edge="1">
                    <mxGeometry relative="1" as="geometry">
                        <mxPoint x="300" y="2857" as="sourcePoint"/>
                        <mxPoint x="793.5" y="3148" as="targetPoint"/>
                    </mxGeometry>
                </mxCell>
                <mxCell id="207" value="стриминг событие о воркерах" style="edgeLabel;html=1;align=center;verticalAlign=middle;resizable=0;points=[];fontSize=11;fontColor=#000000;labelBackgroundColor=none;" parent="206" vertex="1" connectable="0">
                    <mxGeometry x="-0.1089" y="1" relative="1" as="geometry">
                        <mxPoint x="71" y="-13" as="offset"/>
                    </mxGeometry>
                </mxCell>
                <mxCell id="210" style="edgeStyle=none;html=1;exitX=1;exitY=0.5;exitDx=0;exitDy=0;entryX=0;entryY=0.5;entryDx=0;entryDy=0;fontSize=11;fontColor=#000000;strokeColor=#FF0000;dashed=1;" parent="1" source="186" target="183" edge="1">
                    <mxGeometry relative="1" as="geometry">
                        <mxPoint x="75" y="2776.0000000000005" as="sourcePoint"/>
                        <mxPoint x="568.5" y="3076" as="targetPoint"/>
                    </mxGeometry>
                </mxCell>
                <mxCell id="211" value="стриминг событие о заказах" style="edgeLabel;html=1;align=center;verticalAlign=middle;resizable=0;points=[];fontSize=11;fontColor=#000000;labelBackgroundColor=none;" parent="210" vertex="1" connectable="0">
                    <mxGeometry x="0.6103" y="-4" relative="1" as="geometry">
                        <mxPoint x="-17" y="-10" as="offset"/>
                    </mxGeometry>
                </mxCell>
                <mxCell id="214" style="edgeStyle=none;html=1;exitX=1;exitY=0.25;exitDx=0;exitDy=0;entryX=0;entryY=0.25;entryDx=0;entryDy=0;dashed=1;strokeColor=#FF0000;fontSize=11;fontColor=#000000;" parent="1" source="186" target="183" edge="1">
                    <mxGeometry relative="1" as="geometry">
                        <mxPoint x="323" y="2860.0000000000005" as="sourcePoint"/>
                        <mxPoint x="794" y="2938.7500000000005" as="targetPoint"/>
                    </mxGeometry>
                </mxCell>
                <mxCell id="215" value="стриминг событие о клиентах" style="edgeLabel;html=1;align=center;verticalAlign=middle;resizable=0;points=[];fontSize=11;fontColor=#000000;labelBackgroundColor=none;" parent="214" vertex="1" connectable="0">
                    <mxGeometry x="0.492" y="-1" relative="1" as="geometry">
                        <mxPoint as="offset"/>
                    </mxGeometry>
                </mxCell>
            </root>
        </mxGraphModel>
    </diagram>
</mxfile>